<svg width="20" height="24" viewBox="0 0 20 24" fill="none" xmlns="http://www.w3.org/2000/svg">
<path d="M3.75 6.31579C3.75 2.82768 6.54822 0 10 0C13.4518 0 16.25 2.82768 16.25 6.31579C16.25 9.8039 13.4518 12.6316 10 12.6316C6.54822 12.6316 3.75 9.8039 3.75 6.31579ZM10 10.1053C12.0711 10.1053 13.75 8.40866 13.75 6.31579C13.75 4.22292 12.0711 2.52632 10 2.52632C7.92893 2.52632 6.25 4.22292 6.25 6.31579C6.25 8.40866 7.92893 10.1053 10 10.1053Z" fill="#2E3A59"/>
<path d="M2.92893 16.8545C1.05357 18.7496 0 21.3199 0 24H2.5C2.5 21.9899 3.29018 20.0622 4.6967 18.6409C6.10322 17.2195 8.01088 16.4211 10 16.4211C11.9891 16.4211 13.8968 17.2195 15.3033 18.6409C16.7098 20.0622 17.5 21.9899 17.5 24H20C20 21.3199 18.9464 18.7496 17.0711 16.8545C15.1957 14.9594 12.6522 13.8947 10 13.8947C7.34784 13.8947 4.8043 14.9594 2.92893 16.8545Z" fill="#2E3A59"/>
</svg>
