<svg width="16" height="12" viewBox="0 0 16 12" fill="none" xmlns="http://www.w3.org/2000/svg">
<path d="M15.3651 6.56003L10.3851 11.56C10.2251 11.72 10.0251 11.8 9.8251 11.8C9.6251 11.8 9.4251 11.72 9.2651 11.56C8.9451 11.24 8.9451 10.74 9.2651 10.42L12.8851 6.78003H1.2051C0.765102 6.78003 0.405102 6.42003 0.405102 5.98003C0.405102 5.54003 0.765102 5.18003 1.2051 5.18003H12.8851L9.2651 1.54004C8.9451 1.22004 8.9451 0.720034 9.2651 0.400034C9.5851 0.0800342 10.0851 0.0800342 10.4051 0.400034L15.3851 5.40003C15.6851 5.74003 15.6851 6.26003 15.3651 6.56003Z" fill="#104798"/>
</svg>
