<svg width="129" height="32" viewBox="0 0 129 32" fill="none" xmlns="http://www.w3.org/2000/svg">
<path d="M38.184 2.8V14H40.888V2.8H38.184ZM39.88 5.024H42.072C42.616 5.024 43.0427 5.14667 43.352 5.392C43.6613 5.63733 43.816 5.99467 43.816 6.464C43.816 6.92267 43.6613 7.27467 43.352 7.52C43.0427 7.76533 42.616 7.888 42.072 7.888H39.88V10.112H42.072C43.0213 10.112 43.816 9.968 44.456 9.68C45.1067 9.38133 45.5973 8.96 45.928 8.416C46.2587 7.86133 46.424 7.21067 46.424 6.464C46.424 5.696 46.2587 5.04 45.928 4.496C45.5973 3.952 45.1067 3.536 44.456 3.248C43.816 2.94933 43.0213 2.8 42.072 2.8H39.88V5.024ZM50.9528 8.928L54.0888 14H57.2568L53.7528 8.928H50.9528ZM48.1528 2.8V14H50.8568V2.8H48.1528ZM49.8488 5.088H52.0408C52.4034 5.088 52.7128 5.14667 52.9688 5.264C53.2354 5.38133 53.4381 5.552 53.5768 5.776C53.7154 5.98933 53.7848 6.25067 53.7848 6.56C53.7848 6.86933 53.7154 7.136 53.5768 7.36C53.4381 7.57333 53.2354 7.73867 52.9688 7.856C52.7128 7.96267 52.4034 8.016 52.0408 8.016H49.8488V10.112H52.2328C53.1928 10.112 53.9928 9.95733 54.6328 9.648C55.2728 9.33867 55.7581 8.912 56.0888 8.368C56.4194 7.81333 56.5848 7.17867 56.5848 6.464C56.5848 5.73867 56.4194 5.104 56.0888 4.56C55.7581 4.00533 55.2728 3.57333 54.6328 3.264C53.9928 2.95467 53.1928 2.8 52.2328 2.8H49.8488V5.088ZM60.7361 8.4C60.7361 7.73867 60.8641 7.15733 61.1201 6.656C61.3868 6.144 61.7548 5.744 62.2241 5.456C62.7041 5.168 63.2641 5.024 63.9041 5.024C64.5548 5.024 65.1148 5.168 65.5841 5.456C66.0535 5.744 66.4161 6.144 66.6721 6.656C66.9281 7.15733 67.0561 7.73867 67.0561 8.4C67.0561 9.06133 66.9228 9.648 66.6561 10.16C66.4001 10.6613 66.0321 11.056 65.5521 11.344C65.0828 11.632 64.5335 11.776 63.9041 11.776C63.2641 11.776 62.7041 11.632 62.2241 11.344C61.7548 11.056 61.3868 10.6613 61.1201 10.16C60.8641 9.648 60.7361 9.06133 60.7361 8.4ZM57.8721 8.4C57.8721 9.264 58.0161 10.0587 58.3041 10.784C58.6028 11.5093 59.0188 12.1387 59.5521 12.672C60.0961 13.2053 60.7361 13.6213 61.4721 13.92C62.2081 14.208 63.0188 14.352 63.9041 14.352C64.7788 14.352 65.5841 14.208 66.3201 13.92C67.0561 13.6213 67.6908 13.2053 68.2241 12.672C68.7681 12.1387 69.1841 11.5093 69.4721 10.784C69.7708 10.0587 69.9201 9.264 69.9201 8.4C69.9201 7.536 69.7708 6.74667 69.4721 6.032C69.1735 5.31733 68.7521 4.69867 68.2081 4.176C67.6641 3.65333 67.0241 3.25333 66.2881 2.976C65.5628 2.688 64.7681 2.544 63.9041 2.544C63.0508 2.544 62.2561 2.688 61.5201 2.976C60.7841 3.25333 60.1441 3.65333 59.6001 4.176C59.0561 4.69867 58.6295 5.31733 58.3201 6.032C58.0215 6.74667 57.8721 7.536 57.8721 8.4ZM77.2048 9.952H80.1808C80.0848 10.24 79.9514 10.512 79.7808 10.768C79.6208 11.0133 79.4234 11.232 79.1888 11.424C78.9541 11.6053 78.6714 11.7493 78.3408 11.856C78.0101 11.952 77.6421 12 77.2368 12C76.5754 12 75.9888 11.856 75.4768 11.568C74.9754 11.2693 74.5754 10.8533 74.2768 10.32C73.9888 9.776 73.8448 9.136 73.8448 8.4C73.8448 7.65333 73.9941 7.024 74.2928 6.512C74.6021 5.98933 75.0128 5.58933 75.5248 5.312C76.0474 5.03467 76.6181 4.896 77.2368 4.896C77.8874 4.896 78.4261 5.04533 78.8528 5.344C79.2901 5.632 79.6368 6 79.8928 6.448L82.2928 5.2C81.9408 4.67733 81.5194 4.21867 81.0288 3.824C80.5488 3.41867 79.9941 3.104 79.3648 2.88C78.7354 2.656 78.0261 2.544 77.2368 2.544C76.3514 2.544 75.5301 2.68267 74.7728 2.96C74.0154 3.23733 73.3541 3.632 72.7888 4.144C72.2234 4.656 71.7861 5.27467 71.4768 6C71.1674 6.71467 71.0128 7.51467 71.0128 8.4C71.0128 9.28533 71.1621 10.096 71.4608 10.832C71.7701 11.5573 72.1968 12.1867 72.7408 12.72C73.2848 13.2427 73.9301 13.648 74.6768 13.936C75.4234 14.2133 76.2448 14.352 77.1408 14.352C78.0901 14.352 78.9328 14.1867 79.6688 13.856C80.4048 13.5147 81.0181 13.0453 81.5088 12.448C81.9994 11.8507 82.3621 11.1627 82.5968 10.384C82.8314 9.60533 82.9221 8.768 82.8688 7.872H77.2048V9.952ZM87.484 8.928L90.62 14H93.788L90.284 8.928H87.484ZM84.684 2.8V14H87.388V2.8H84.684ZM86.38 5.088H88.572C88.9347 5.088 89.244 5.14667 89.5 5.264C89.7667 5.38133 89.9693 5.552 90.108 5.776C90.2467 5.98933 90.316 6.25067 90.316 6.56C90.316 6.86933 90.2467 7.136 90.108 7.36C89.9693 7.57333 89.7667 7.73867 89.5 7.856C89.244 7.96267 88.9347 8.016 88.572 8.016H86.38V10.112H88.764C89.724 10.112 90.524 9.95733 91.164 9.648C91.804 9.33867 92.2893 8.912 92.62 8.368C92.9507 7.81333 93.116 7.17867 93.116 6.464C93.116 5.73867 92.9507 5.104 92.62 4.56C92.2893 4.00533 91.804 3.57333 91.164 3.264C90.524 2.95467 89.724 2.8 88.764 2.8H86.38V5.088ZM96.8354 14H102.483V11.776H96.8354V14ZM96.8354 5.024H102.483V2.8H96.8354V5.024ZM96.8354 9.2H102.163V7.024H96.8354V9.2ZM95.0434 2.8V14H97.6354V2.8H95.0434ZM105.916 10.064L104.028 11.424C104.284 11.9573 104.641 12.448 105.1 12.896C105.559 13.344 106.097 13.7013 106.716 13.968C107.345 14.224 108.023 14.352 108.748 14.352C109.271 14.352 109.777 14.272 110.268 14.112C110.769 13.9627 111.212 13.7387 111.596 13.44C111.991 13.1413 112.3 12.7733 112.524 12.336C112.759 11.888 112.876 11.3813 112.876 10.816C112.876 10.3467 112.801 9.93067 112.652 9.568C112.503 9.20533 112.295 8.88533 112.028 8.608C111.772 8.33067 111.473 8.096 111.132 7.904C110.791 7.70133 110.423 7.52533 110.028 7.376C109.505 7.19467 109.057 7.024 108.684 6.864C108.321 6.704 108.039 6.528 107.836 6.336C107.644 6.144 107.548 5.92 107.548 5.664C107.548 5.41867 107.649 5.216 107.852 5.056C108.055 4.88533 108.348 4.8 108.732 4.8C109.02 4.8 109.287 4.85867 109.532 4.976C109.788 5.08267 110.017 5.23733 110.22 5.44C110.433 5.632 110.62 5.86133 110.78 6.128L112.844 4.976C112.652 4.592 112.375 4.21333 112.012 3.84C111.649 3.46667 111.191 3.15733 110.636 2.912C110.092 2.66667 109.447 2.544 108.7 2.544C107.975 2.544 107.313 2.672 106.716 2.928C106.129 3.17333 105.66 3.536 105.308 4.016C104.967 4.496 104.796 5.06667 104.796 5.728C104.796 6.28267 104.897 6.75733 105.1 7.152C105.303 7.536 105.559 7.86667 105.868 8.144C106.177 8.41067 106.503 8.62933 106.844 8.8C107.196 8.97067 107.505 9.104 107.772 9.2C108.316 9.40267 108.753 9.584 109.084 9.744C109.415 9.904 109.655 10.0747 109.804 10.256C109.953 10.4267 110.028 10.656 110.028 10.944C110.028 11.2853 109.9 11.5573 109.644 11.76C109.388 11.952 109.063 12.048 108.668 12.048C108.295 12.048 107.937 11.968 107.596 11.808C107.265 11.648 106.956 11.4187 106.668 11.12C106.391 10.8213 106.14 10.4693 105.916 10.064ZM115.916 10.064L114.028 11.424C114.284 11.9573 114.641 12.448 115.1 12.896C115.559 13.344 116.097 13.7013 116.716 13.968C117.345 14.224 118.023 14.352 118.748 14.352C119.271 14.352 119.777 14.272 120.268 14.112C120.769 13.9627 121.212 13.7387 121.596 13.44C121.991 13.1413 122.3 12.7733 122.524 12.336C122.759 11.888 122.876 11.3813 122.876 10.816C122.876 10.3467 122.801 9.93067 122.652 9.568C122.503 9.20533 122.295 8.88533 122.028 8.608C121.772 8.33067 121.473 8.096 121.132 7.904C120.791 7.70133 120.423 7.52533 120.028 7.376C119.505 7.19467 119.057 7.024 118.684 6.864C118.321 6.704 118.039 6.528 117.836 6.336C117.644 6.144 117.548 5.92 117.548 5.664C117.548 5.41867 117.649 5.216 117.852 5.056C118.055 4.88533 118.348 4.8 118.732 4.8C119.02 4.8 119.287 4.85867 119.532 4.976C119.788 5.08267 120.017 5.23733 120.22 5.44C120.433 5.632 120.62 5.86133 120.78 6.128L122.844 4.976C122.652 4.592 122.375 4.21333 122.012 3.84C121.649 3.46667 121.191 3.15733 120.636 2.912C120.092 2.66667 119.447 2.544 118.7 2.544C117.975 2.544 117.313 2.672 116.716 2.928C116.129 3.17333 115.66 3.536 115.308 4.016C114.967 4.496 114.796 5.06667 114.796 5.728C114.796 6.28267 114.897 6.75733 115.1 7.152C115.303 7.536 115.559 7.86667 115.868 8.144C116.177 8.41067 116.503 8.62933 116.844 8.8C117.196 8.97067 117.505 9.104 117.772 9.2C118.316 9.40267 118.753 9.584 119.084 9.744C119.415 9.904 119.655 10.0747 119.804 10.256C119.953 10.4267 120.028 10.656 120.028 10.944C120.028 11.2853 119.9 11.5573 119.644 11.76C119.388 11.952 119.063 12.048 118.668 12.048C118.295 12.048 117.937 11.968 117.596 11.808C117.265 11.648 116.956 11.4187 116.668 11.12C116.391 10.8213 116.14 10.4693 115.916 10.064Z" fill="#37363C"/>
<path d="M46.2 23.47H48.851L47.619 19.609L46.2 23.47ZM50.831 25.813C50.7137 26.0037 50.5413 26.099 50.314 26.099C50.094 26.099 49.929 26.0513 49.819 25.956C49.709 25.8607 49.6137 25.6883 49.533 25.439L49.082 24.141H45.947L45.485 25.34C45.2943 25.846 45.0523 26.099 44.759 26.099C44.5097 26.099 44.3373 25.9743 44.242 25.725C44.4107 25.659 44.5427 25.4867 44.638 25.208L47.223 18.685C47.1423 18.487 47.0507 18.3403 46.948 18.245C47.1167 18.0983 47.289 18.025 47.465 18.025C47.6483 18.025 47.7877 18.08 47.883 18.19C47.9857 18.3 48.081 18.476 48.169 18.718L50.413 25.252C50.5157 25.5527 50.655 25.7397 50.831 25.813ZM60.6775 19.345C60.6775 19.5283 60.6188 19.6713 60.5015 19.774C60.3841 19.8767 60.2375 19.928 60.0615 19.928C59.8928 19.928 59.7608 19.9023 59.6655 19.851C59.6728 19.7997 59.6765 19.752 59.6765 19.708C59.6765 19.4587 59.5628 19.235 59.3355 19.037C59.1081 18.839 58.7525 18.74 58.2685 18.74C57.5938 18.74 57.0035 19.0297 56.4975 19.609C55.9988 20.181 55.7495 20.9877 55.7495 22.029C55.7495 23.0703 55.9768 23.8697 56.4315 24.427C56.8861 24.977 57.5205 25.252 58.3345 25.252C58.7671 25.252 59.1705 25.164 59.5445 24.988C59.9185 24.812 60.2265 24.603 60.4685 24.361C60.5198 24.3683 60.5675 24.405 60.6115 24.471C60.6628 24.5297 60.6885 24.6103 60.6885 24.713C60.6885 24.9843 60.4281 25.285 59.9075 25.615C59.3941 25.9377 58.7855 26.099 58.0815 26.099C57.1061 26.099 56.3031 25.747 55.6725 25.043C55.0491 24.339 54.7375 23.3783 54.7375 22.161C54.7375 20.9437 55.0931 19.95 55.8045 19.18C56.5158 18.41 57.3995 18.025 58.4555 18.025C59.0861 18.025 59.6141 18.1533 60.0395 18.41C60.4648 18.6667 60.6775 18.9783 60.6775 19.345ZM66.6639 23.47H69.3149L68.0829 19.609L66.6639 23.47ZM71.2949 25.813C71.1775 26.0037 71.0052 26.099 70.7779 26.099C70.5579 26.099 70.3929 26.0513 70.2829 25.956C70.1729 25.8607 70.0775 25.6883 69.9969 25.439L69.5459 24.141H66.4109L65.9489 25.34C65.7582 25.846 65.5162 26.099 65.2229 26.099C64.9735 26.099 64.8012 25.9743 64.7059 25.725C64.8745 25.659 65.0065 25.4867 65.1019 25.208L67.6869 18.685C67.6062 18.487 67.5145 18.3403 67.4119 18.245C67.5805 18.0983 67.7529 18.025 67.9289 18.025C68.1122 18.025 68.2515 18.08 68.3469 18.19C68.4495 18.3 68.5449 18.476 68.6329 18.718L70.8769 25.252C70.9795 25.5527 71.1189 25.7397 71.2949 25.813ZM77.8303 18.025C78.9157 18.025 79.8617 18.3403 80.6683 18.971C81.0643 19.2863 81.3797 19.7117 81.6143 20.247C81.8563 20.775 81.9773 21.38 81.9773 22.062C81.9773 22.744 81.8563 23.3527 81.6143 23.888C81.3797 24.416 81.0643 24.8377 80.6683 25.153C79.8617 25.7837 78.9157 26.099 77.8303 26.099C76.943 26.099 76.3417 25.9853 76.0263 25.758C75.711 25.5307 75.5533 25.186 75.5533 24.724L75.5643 19.026C75.5643 18.7547 75.5093 18.5493 75.3993 18.41C76.14 18.1533 76.9503 18.025 77.8303 18.025ZM77.8303 25.417C78.7177 25.417 79.4657 25.131 80.0743 24.559C80.683 23.9797 80.9873 23.151 80.9873 22.073C80.9873 20.9877 80.683 20.159 80.0743 19.587C79.4657 19.015 78.7177 18.729 77.8303 18.729C77.3683 18.729 76.9283 18.7877 76.5103 18.905L76.4773 24.724C76.4773 24.9 76.4993 25.032 76.5433 25.12C76.646 25.318 77.075 25.417 77.8303 25.417ZM88.3259 25.263H90.5479C90.9659 25.263 91.2775 25.109 91.4829 24.801C91.5782 24.8377 91.6552 24.9037 91.7139 24.999C91.7725 25.087 91.8019 25.1787 91.8019 25.274C91.8019 25.758 91.3985 26 90.5919 26H88.2819C87.7172 26 87.2992 25.8863 87.0279 25.659C86.7565 25.4317 86.6209 25.0613 86.6209 24.548V18.949C86.6209 18.729 86.5292 18.5823 86.3459 18.509C86.5219 18.245 86.8152 18.113 87.2259 18.113H90.7019C91.4352 18.113 91.8019 18.3037 91.8019 18.685C91.8019 18.9123 91.6955 19.0627 91.4829 19.136C91.2775 18.9527 90.9659 18.861 90.5479 18.861H87.5449V21.545H89.8659C90.2692 21.545 90.5552 21.578 90.7239 21.644C90.8925 21.71 90.9769 21.8383 90.9769 22.029C90.9769 22.2197 90.8889 22.359 90.7129 22.447C90.5149 22.3443 90.2032 22.293 89.7779 22.293H87.5449V24.515C87.5449 24.779 87.6035 24.9697 87.7209 25.087C87.8455 25.2043 88.0472 25.263 88.3259 25.263ZM105.091 25.912C104.922 26.0293 104.746 26.088 104.563 26.088C104.387 26.088 104.251 26.033 104.156 25.923C104.061 25.8057 103.998 25.6113 103.969 25.34L103.551 19.367L101.054 25.604C100.981 25.802 100.841 25.901 100.636 25.901C100.438 25.8937 100.306 25.7947 100.24 25.604L97.8091 19.356L97.4021 25.307C97.3581 25.835 97.1637 26.099 96.8191 26.099C96.6431 26.099 96.4707 26.022 96.3021 25.868C96.4047 25.78 96.4707 25.5857 96.5001 25.285L96.9841 18.839C96.9841 18.8097 96.9841 18.7803 96.9841 18.751C96.9841 18.5383 96.9327 18.3697 96.8301 18.245C97.0574 18.0983 97.2884 18.025 97.5231 18.025C97.9924 18.025 98.3334 18.3257 98.5461 18.927L100.691 24.383L102.924 18.938C103.137 18.3293 103.496 18.025 104.002 18.025C104.2 18.025 104.405 18.0873 104.618 18.212C104.508 18.322 104.453 18.4907 104.453 18.718C104.453 18.7473 104.453 18.7767 104.453 18.806L104.926 25.274C104.941 25.5967 104.996 25.8093 105.091 25.912ZM112.39 26.088C111.994 26.088 111.796 25.8167 111.796 25.274L111.807 22.513L109.794 18.982C109.618 18.7107 109.398 18.5713 109.134 18.564C109.244 18.2047 109.464 18.025 109.794 18.025C110.124 18.025 110.399 18.2157 110.619 18.597L112.335 21.655L114.106 18.894C114.223 18.7327 114.282 18.5933 114.282 18.476C114.282 18.3513 114.238 18.245 114.15 18.157C114.304 18.069 114.48 18.025 114.678 18.025C114.876 18.025 115.019 18.069 115.107 18.157C115.202 18.245 115.25 18.3623 115.25 18.509C115.25 18.6557 115.191 18.828 115.074 19.026L112.72 22.48L112.709 25.34C112.709 25.5747 112.775 25.7653 112.907 25.912C112.753 26.0293 112.58 26.088 112.39 26.088Z" fill="#37363C"/>
<path d="M22.1439 26.4445L24.0686 21.4785H31.3253L33.4291 26.481C33.6507 27.0088 34.1789 27.3535 34.765 27.3535H40.6815L29.8523 1.88954C29.3659 0.74543 28.2184 0 26.9461 0C24.7117 0 23.1896 2.2033 24.034 4.21498L29.0852 16.2492H21.4207C20.554 16.2492 19.7702 16.7525 19.4296 17.5281L15.1152 27.3535H20.7936C21.394 27.3535 21.9317 26.9913 22.1439 26.4445Z" fill="#A30041"/>
<path d="M11.2982 0.193359H0V27.1608H6.54798L6.56747 18.443L11.615 18.3855C12.9451 18.37 14.2615 18.1005 15.4761 17.5741C17.901 16.5226 21.0376 14.1452 21.0376 8.88372C21.0376 0.306367 11.2982 0.193359 11.2982 0.193359ZM11.0276 13.1934H6.56819V5.59807H10.9799C10.9799 5.59807 14.6779 5.80865 14.6779 9.39541C14.6772 12.9829 11.0276 13.1934 11.0276 13.1934Z" fill="#A30041"/>
</svg>
