<svg width="41" height="28" viewBox="0 0 41 28" fill="none" xmlns="http://www.w3.org/2000/svg">
<path d="M22.1439 26.4445L24.0686 21.4785H31.3253L33.4291 26.481C33.6507 27.0088 34.1789 27.3535 34.765 27.3535H40.6815L29.8523 1.88954C29.3659 0.74543 28.2184 0 26.9461 0C24.7117 0 23.1896 2.2033 24.034 4.21498L29.0852 16.2492H21.4207C20.554 16.2492 19.7702 16.7525 19.4296 17.5281L15.1152 27.3535H20.7936C21.394 27.3535 21.9317 26.9913 22.1439 26.4445Z" fill="#A30041"/>
<path d="M11.2982 0.193359H0V27.1608H6.54798L6.56747 18.443L11.615 18.3855C12.9451 18.37 14.2615 18.1005 15.4761 17.5741C17.901 16.5226 21.0376 14.1452 21.0376 8.88372C21.0376 0.306367 11.2982 0.193359 11.2982 0.193359ZM11.0276 13.1934H6.56819V5.59807H10.9799C10.9799 5.59807 14.6779 5.80865 14.6779 9.39541C14.6772 12.9829 11.0276 13.1934 11.0276 13.1934Z" fill="#A30041"/>
</svg>
