<svg width="178" height="73" viewBox="0 0 178 73" fill="none" xmlns="http://www.w3.org/2000/svg">
<path d="M74.5 36.5C74.5 56.3696 57.9474 72.5 37.5 72.5C17.0526 72.5 0.5 56.3696 0.5 36.5C0.5 16.6304 17.0526 0.5 37.5 0.5C57.9474 0.5 74.5 16.6304 74.5 36.5Z" fill="#283746" stroke="white"/>
<path d="M35.4002 51.2823L40.697 39.21C41.0574 38.3888 41.8923 37.8465 42.8257 37.8465H52.782H53.5339L53.243 37.1532L46.6815 21.5083L46.2204 21.7017L46.6815 21.5083C45.7308 19.2418 47.437 16.7222 50.0032 16.7222C51.4617 16.7222 52.7673 17.5771 53.3183 18.8741L53.3183 18.8742L67.09 51.2823H60.1601C59.5938 51.2823 59.0933 50.9492 58.8858 50.4547L58.8857 50.4543L56.1529 43.951L56.0242 43.6447H55.692H46.2654H45.9228L45.7991 43.9641L43.2989 50.4198C43.2989 50.4199 43.2988 50.42 43.2988 50.42C43.0999 50.9327 42.5907 51.2823 42.011 51.2823H35.4002Z" fill="white" stroke="white"/>
<path d="M23.526 39.6982L23.0328 39.7038L23.0317 40.197L23.0075 51.0314H15.5005V16.9731H29.6733L29.6769 16.9732L29.7004 16.9737C29.7219 16.9743 29.7549 16.9753 29.7987 16.9771C29.8861 16.9807 30.0165 16.9874 30.1835 16.9999C30.5177 17.0248 30.9981 17.0726 31.5756 17.1642C32.7331 17.3476 34.2682 17.7047 35.7968 18.396C37.325 19.0872 38.8297 20.1048 39.9518 21.6013C41.0691 23.0914 41.8286 25.0847 41.8286 27.7708C41.8286 31.0833 40.8449 33.4563 39.5044 35.1633C38.1581 36.8778 36.4294 37.9484 34.9053 38.6098C33.3912 39.2665 31.7473 39.604 30.0829 39.6234C30.0829 39.6234 30.0828 39.6234 30.0828 39.6234L23.526 39.6982ZM29.3255 33.8736H29.3399L29.3543 33.8727L29.3255 33.3736C29.3543 33.8727 29.3546 33.8727 29.3548 33.8727L29.3555 33.8727L29.3571 33.8726L29.3616 33.8723L29.3758 33.8713C29.3875 33.8704 29.4036 33.8691 29.4238 33.8673C29.4643 33.8636 29.5214 33.8578 29.5927 33.8486C29.7352 33.8304 29.9355 33.799 30.1745 33.7461C30.6504 33.6406 31.2911 33.4468 31.9369 33.0919C33.2512 32.3696 34.5669 30.983 34.5674 28.4361V28.436C34.5674 25.8861 33.2326 24.5002 31.9039 23.7796C31.2505 23.4253 30.6024 23.2319 30.1211 23.1266C29.8793 23.0737 29.6767 23.0424 29.5327 23.0242C29.4606 23.0151 29.4029 23.0092 29.3621 23.0056C29.3416 23.0038 29.3254 23.0025 29.3136 23.0016L29.2994 23.0007L29.2948 23.0004L29.2932 23.0003L29.2926 23.0002C29.2923 23.0002 29.2921 23.0002 29.2636 23.4994L29.2921 23.0002L29.2779 22.9994H29.2636H23.5327H23.0327V23.4994V33.3736V33.8736H23.5327H29.3255Z" fill="white" stroke="white"/>
<path d="M80.184 24.8V36H82.888V24.8H80.184ZM81.88 27.024H84.072C84.616 27.024 85.0427 27.1467 85.352 27.392C85.6613 27.6373 85.816 27.9947 85.816 28.464C85.816 28.9227 85.6613 29.2747 85.352 29.52C85.0427 29.7653 84.616 29.888 84.072 29.888H81.88V32.112H84.072C85.0213 32.112 85.816 31.968 86.456 31.68C87.1067 31.3813 87.5973 30.96 87.928 30.416C88.2587 29.8613 88.424 29.2107 88.424 28.464C88.424 27.696 88.2587 27.04 87.928 26.496C87.5973 25.952 87.1067 25.536 86.456 25.248C85.816 24.9493 85.0213 24.8 84.072 24.8H81.88V27.024ZM92.9528 30.928L96.0888 36H99.2568L95.7528 30.928H92.9528ZM90.1528 24.8V36H92.8568V24.8H90.1528ZM91.8488 27.088H94.0408C94.4034 27.088 94.7128 27.1467 94.9688 27.264C95.2354 27.3813 95.4381 27.552 95.5768 27.776C95.7154 27.9893 95.7848 28.2507 95.7848 28.56C95.7848 28.8693 95.7154 29.136 95.5768 29.36C95.4381 29.5733 95.2354 29.7387 94.9688 29.856C94.7128 29.9627 94.4034 30.016 94.0408 30.016H91.8488V32.112H94.2328C95.1928 32.112 95.9928 31.9573 96.6328 31.648C97.2728 31.3387 97.7581 30.912 98.0888 30.368C98.4194 29.8133 98.5848 29.1787 98.5848 28.464C98.5848 27.7387 98.4194 27.104 98.0888 26.56C97.7581 26.0053 97.2728 25.5733 96.6328 25.264C95.9928 24.9547 95.1928 24.8 94.2328 24.8H91.8488V27.088ZM102.736 30.4C102.736 29.7387 102.864 29.1573 103.12 28.656C103.387 28.144 103.755 27.744 104.224 27.456C104.704 27.168 105.264 27.024 105.904 27.024C106.555 27.024 107.115 27.168 107.584 27.456C108.053 27.744 108.416 28.144 108.672 28.656C108.928 29.1573 109.056 29.7387 109.056 30.4C109.056 31.0613 108.923 31.648 108.656 32.16C108.4 32.6613 108.032 33.056 107.552 33.344C107.083 33.632 106.533 33.776 105.904 33.776C105.264 33.776 104.704 33.632 104.224 33.344C103.755 33.056 103.387 32.6613 103.12 32.16C102.864 31.648 102.736 31.0613 102.736 30.4ZM99.8721 30.4C99.8721 31.264 100.016 32.0587 100.304 32.784C100.603 33.5093 101.019 34.1387 101.552 34.672C102.096 35.2053 102.736 35.6213 103.472 35.92C104.208 36.208 105.019 36.352 105.904 36.352C106.779 36.352 107.584 36.208 108.32 35.92C109.056 35.6213 109.691 35.2053 110.224 34.672C110.768 34.1387 111.184 33.5093 111.472 32.784C111.771 32.0587 111.92 31.264 111.92 30.4C111.92 29.536 111.771 28.7467 111.472 28.032C111.173 27.3173 110.752 26.6987 110.208 26.176C109.664 25.6533 109.024 25.2533 108.288 24.976C107.563 24.688 106.768 24.544 105.904 24.544C105.051 24.544 104.256 24.688 103.52 24.976C102.784 25.2533 102.144 25.6533 101.6 26.176C101.056 26.6987 100.629 27.3173 100.32 28.032C100.021 28.7467 99.8721 29.536 99.8721 30.4ZM119.205 31.952H122.181C122.085 32.24 121.951 32.512 121.781 32.768C121.621 33.0133 121.423 33.232 121.189 33.424C120.954 33.6053 120.671 33.7493 120.341 33.856C120.01 33.952 119.642 34 119.237 34C118.575 34 117.989 33.856 117.477 33.568C116.975 33.2693 116.575 32.8533 116.277 32.32C115.989 31.776 115.845 31.136 115.845 30.4C115.845 29.6533 115.994 29.024 116.293 28.512C116.602 27.9893 117.013 27.5893 117.525 27.312C118.047 27.0347 118.618 26.896 119.237 26.896C119.887 26.896 120.426 27.0453 120.853 27.344C121.29 27.632 121.637 28 121.893 28.448L124.293 27.2C123.941 26.6773 123.519 26.2187 123.029 25.824C122.549 25.4187 121.994 25.104 121.365 24.88C120.735 24.656 120.026 24.544 119.237 24.544C118.351 24.544 117.53 24.6827 116.773 24.96C116.015 25.2373 115.354 25.632 114.789 26.144C114.223 26.656 113.786 27.2747 113.477 28C113.167 28.7147 113.013 29.5147 113.013 30.4C113.013 31.2853 113.162 32.096 113.461 32.832C113.77 33.5573 114.197 34.1867 114.741 34.72C115.285 35.2427 115.93 35.648 116.677 35.936C117.423 36.2133 118.245 36.352 119.141 36.352C120.09 36.352 120.933 36.1867 121.669 35.856C122.405 35.5147 123.018 35.0453 123.509 34.448C123.999 33.8507 124.362 33.1627 124.597 32.384C124.831 31.6053 124.922 30.768 124.869 29.872H119.205V31.952ZM129.484 30.928L132.62 36H135.788L132.284 30.928H129.484ZM126.684 24.8V36H129.388V24.8H126.684ZM128.38 27.088H130.572C130.935 27.088 131.244 27.1467 131.5 27.264C131.767 27.3813 131.969 27.552 132.108 27.776C132.247 27.9893 132.316 28.2507 132.316 28.56C132.316 28.8693 132.247 29.136 132.108 29.36C131.969 29.5733 131.767 29.7387 131.5 29.856C131.244 29.9627 130.935 30.016 130.572 30.016H128.38V32.112H130.764C131.724 32.112 132.524 31.9573 133.164 31.648C133.804 31.3387 134.289 30.912 134.62 30.368C134.951 29.8133 135.116 29.1787 135.116 28.464C135.116 27.7387 134.951 27.104 134.62 26.56C134.289 26.0053 133.804 25.5733 133.164 25.264C132.524 24.9547 131.724 24.8 130.764 24.8H128.38V27.088ZM138.835 36H144.483V33.776H138.835V36ZM138.835 27.024H144.483V24.8H138.835V27.024ZM138.835 31.2H144.163V29.024H138.835V31.2ZM137.043 24.8V36H139.635V24.8H137.043ZM147.916 32.064L146.028 33.424C146.284 33.9573 146.641 34.448 147.1 34.896C147.559 35.344 148.097 35.7013 148.716 35.968C149.345 36.224 150.023 36.352 150.748 36.352C151.271 36.352 151.777 36.272 152.268 36.112C152.769 35.9627 153.212 35.7387 153.596 35.44C153.991 35.1413 154.3 34.7733 154.524 34.336C154.759 33.888 154.876 33.3813 154.876 32.816C154.876 32.3467 154.801 31.9307 154.652 31.568C154.503 31.2053 154.295 30.8853 154.028 30.608C153.772 30.3307 153.473 30.096 153.132 29.904C152.791 29.7013 152.423 29.5253 152.028 29.376C151.505 29.1947 151.057 29.024 150.684 28.864C150.321 28.704 150.039 28.528 149.836 28.336C149.644 28.144 149.548 27.92 149.548 27.664C149.548 27.4187 149.649 27.216 149.852 27.056C150.055 26.8853 150.348 26.8 150.732 26.8C151.02 26.8 151.287 26.8587 151.532 26.976C151.788 27.0827 152.017 27.2373 152.22 27.44C152.433 27.632 152.62 27.8613 152.78 28.128L154.844 26.976C154.652 26.592 154.375 26.2133 154.012 25.84C153.649 25.4667 153.191 25.1573 152.636 24.912C152.092 24.6667 151.447 24.544 150.7 24.544C149.975 24.544 149.313 24.672 148.716 24.928C148.129 25.1733 147.66 25.536 147.308 26.016C146.967 26.496 146.796 27.0667 146.796 27.728C146.796 28.2827 146.897 28.7573 147.1 29.152C147.303 29.536 147.559 29.8667 147.868 30.144C148.177 30.4107 148.503 30.6293 148.844 30.8C149.196 30.9707 149.505 31.104 149.772 31.2C150.316 31.4027 150.753 31.584 151.084 31.744C151.415 31.904 151.655 32.0747 151.804 32.256C151.953 32.4267 152.028 32.656 152.028 32.944C152.028 33.2853 151.9 33.5573 151.644 33.76C151.388 33.952 151.063 34.048 150.668 34.048C150.295 34.048 149.937 33.968 149.596 33.808C149.265 33.648 148.956 33.4187 148.668 33.12C148.391 32.8213 148.14 32.4693 147.916 32.064ZM157.916 32.064L156.028 33.424C156.284 33.9573 156.641 34.448 157.1 34.896C157.559 35.344 158.097 35.7013 158.716 35.968C159.345 36.224 160.023 36.352 160.748 36.352C161.271 36.352 161.777 36.272 162.268 36.112C162.769 35.9627 163.212 35.7387 163.596 35.44C163.991 35.1413 164.3 34.7733 164.524 34.336C164.759 33.888 164.876 33.3813 164.876 32.816C164.876 32.3467 164.801 31.9307 164.652 31.568C164.503 31.2053 164.295 30.8853 164.028 30.608C163.772 30.3307 163.473 30.096 163.132 29.904C162.791 29.7013 162.423 29.5253 162.028 29.376C161.505 29.1947 161.057 29.024 160.684 28.864C160.321 28.704 160.039 28.528 159.836 28.336C159.644 28.144 159.548 27.92 159.548 27.664C159.548 27.4187 159.649 27.216 159.852 27.056C160.055 26.8853 160.348 26.8 160.732 26.8C161.02 26.8 161.287 26.8587 161.532 26.976C161.788 27.0827 162.017 27.2373 162.22 27.44C162.433 27.632 162.62 27.8613 162.78 28.128L164.844 26.976C164.652 26.592 164.375 26.2133 164.012 25.84C163.649 25.4667 163.191 25.1573 162.636 24.912C162.092 24.6667 161.447 24.544 160.7 24.544C159.975 24.544 159.313 24.672 158.716 24.928C158.129 25.1733 157.66 25.536 157.308 26.016C156.967 26.496 156.796 27.0667 156.796 27.728C156.796 28.2827 156.897 28.7573 157.1 29.152C157.303 29.536 157.559 29.8667 157.868 30.144C158.177 30.4107 158.503 30.6293 158.844 30.8C159.196 30.9707 159.505 31.104 159.772 31.2C160.316 31.4027 160.753 31.584 161.084 31.744C161.415 31.904 161.655 32.0747 161.804 32.256C161.953 32.4267 162.028 32.656 162.028 32.944C162.028 33.2853 161.9 33.5573 161.644 33.76C161.388 33.952 161.063 34.048 160.668 34.048C160.295 34.048 159.937 33.968 159.596 33.808C159.265 33.648 158.956 33.4187 158.668 33.12C158.391 32.8213 158.14 32.4693 157.916 32.064Z" fill="white"/>
<path d="M88.2 48.47H90.851L89.619 44.609L88.2 48.47ZM92.831 50.813C92.7137 51.0037 92.5413 51.099 92.314 51.099C92.094 51.099 91.929 51.0513 91.819 50.956C91.709 50.8607 91.6137 50.6883 91.533 50.439L91.082 49.141H87.947L87.485 50.34C87.2943 50.846 87.0523 51.099 86.759 51.099C86.5097 51.099 86.3373 50.9743 86.242 50.725C86.4107 50.659 86.5427 50.4867 86.638 50.208L89.223 43.685C89.1423 43.487 89.0507 43.3403 88.948 43.245C89.1167 43.0983 89.289 43.025 89.465 43.025C89.6483 43.025 89.7877 43.08 89.883 43.19C89.9857 43.3 90.081 43.476 90.169 43.718L92.413 50.252C92.5157 50.5527 92.655 50.7397 92.831 50.813ZM102.677 44.345C102.677 44.5283 102.619 44.6713 102.501 44.774C102.384 44.8767 102.237 44.928 102.061 44.928C101.893 44.928 101.761 44.9023 101.665 44.851C101.673 44.7997 101.676 44.752 101.676 44.708C101.676 44.4587 101.563 44.235 101.335 44.037C101.108 43.839 100.752 43.74 100.268 43.74C99.5938 43.74 99.0035 44.0297 98.4975 44.609C97.9988 45.181 97.7495 45.9877 97.7495 47.029C97.7495 48.0703 97.9768 48.8697 98.4315 49.427C98.8861 49.977 99.5205 50.252 100.334 50.252C100.767 50.252 101.17 50.164 101.544 49.988C101.918 49.812 102.226 49.603 102.468 49.361C102.52 49.3683 102.567 49.405 102.611 49.471C102.663 49.5297 102.688 49.6103 102.688 49.713C102.688 49.9843 102.428 50.285 101.907 50.615C101.394 50.9377 100.785 51.099 100.081 51.099C99.1061 51.099 98.3031 50.747 97.6725 50.043C97.0491 49.339 96.7375 48.3783 96.7375 47.161C96.7375 45.9437 97.0931 44.95 97.8045 44.18C98.5158 43.41 99.3995 43.025 100.455 43.025C101.086 43.025 101.614 43.1533 102.039 43.41C102.465 43.6667 102.677 43.9783 102.677 44.345ZM108.664 48.47H111.315L110.083 44.609L108.664 48.47ZM113.295 50.813C113.178 51.0037 113.005 51.099 112.778 51.099C112.558 51.099 112.393 51.0513 112.283 50.956C112.173 50.8607 112.078 50.6883 111.997 50.439L111.546 49.141H108.411L107.949 50.34C107.758 50.846 107.516 51.099 107.223 51.099C106.974 51.099 106.801 50.9743 106.706 50.725C106.875 50.659 107.007 50.4867 107.102 50.208L109.687 43.685C109.606 43.487 109.515 43.3403 109.412 43.245C109.581 43.0983 109.753 43.025 109.929 43.025C110.112 43.025 110.252 43.08 110.347 43.19C110.45 43.3 110.545 43.476 110.633 43.718L112.877 50.252C112.98 50.5527 113.119 50.7397 113.295 50.813ZM119.83 43.025C120.916 43.025 121.862 43.3403 122.668 43.971C123.064 44.2863 123.38 44.7117 123.614 45.247C123.856 45.775 123.977 46.38 123.977 47.062C123.977 47.744 123.856 48.3527 123.614 48.888C123.38 49.416 123.064 49.8377 122.668 50.153C121.862 50.7837 120.916 51.099 119.83 51.099C118.943 51.099 118.342 50.9853 118.026 50.758C117.711 50.5307 117.553 50.186 117.553 49.724L117.564 44.026C117.564 43.7547 117.509 43.5493 117.399 43.41C118.14 43.1533 118.95 43.025 119.83 43.025ZM119.83 50.417C120.718 50.417 121.466 50.131 122.074 49.559C122.683 48.9797 122.987 48.151 122.987 47.073C122.987 45.9877 122.683 45.159 122.074 44.587C121.466 44.015 120.718 43.729 119.83 43.729C119.368 43.729 118.928 43.7877 118.51 43.905L118.477 49.724C118.477 49.9 118.499 50.032 118.543 50.12C118.646 50.318 119.075 50.417 119.83 50.417ZM130.326 50.263H132.548C132.966 50.263 133.278 50.109 133.483 49.801C133.578 49.8377 133.655 49.9037 133.714 49.999C133.773 50.087 133.802 50.1787 133.802 50.274C133.802 50.758 133.399 51 132.592 51H130.282C129.717 51 129.299 50.8863 129.028 50.659C128.757 50.4317 128.621 50.0613 128.621 49.548V43.949C128.621 43.729 128.529 43.5823 128.346 43.509C128.522 43.245 128.815 43.113 129.226 43.113H132.702C133.435 43.113 133.802 43.3037 133.802 43.685C133.802 43.9123 133.696 44.0627 133.483 44.136C133.278 43.9527 132.966 43.861 132.548 43.861H129.545V46.545H131.866C132.269 46.545 132.555 46.578 132.724 46.644C132.893 46.71 132.977 46.8383 132.977 47.029C132.977 47.2197 132.889 47.359 132.713 47.447C132.515 47.3443 132.203 47.293 131.778 47.293H129.545V49.515C129.545 49.779 129.604 49.9697 129.721 50.087C129.846 50.2043 130.047 50.263 130.326 50.263ZM147.091 50.912C146.922 51.0293 146.746 51.088 146.563 51.088C146.387 51.088 146.251 51.033 146.156 50.923C146.061 50.8057 145.998 50.6113 145.969 50.34L145.551 44.367L143.054 50.604C142.981 50.802 142.841 50.901 142.636 50.901C142.438 50.8937 142.306 50.7947 142.24 50.604L139.809 44.356L139.402 50.307C139.358 50.835 139.164 51.099 138.819 51.099C138.643 51.099 138.471 51.022 138.302 50.868C138.405 50.78 138.471 50.5857 138.5 50.285L138.984 43.839C138.984 43.8097 138.984 43.7803 138.984 43.751C138.984 43.5383 138.933 43.3697 138.83 43.245C139.057 43.0983 139.288 43.025 139.523 43.025C139.992 43.025 140.333 43.3257 140.546 43.927L142.691 49.383L144.924 43.938C145.137 43.3293 145.496 43.025 146.002 43.025C146.2 43.025 146.405 43.0873 146.618 43.212C146.508 43.322 146.453 43.4907 146.453 43.718C146.453 43.7473 146.453 43.7767 146.453 43.806L146.926 50.274C146.941 50.5967 146.996 50.8093 147.091 50.912ZM154.39 51.088C153.994 51.088 153.796 50.8167 153.796 50.274L153.807 47.513L151.794 43.982C151.618 43.7107 151.398 43.5713 151.134 43.564C151.244 43.2047 151.464 43.025 151.794 43.025C152.124 43.025 152.399 43.2157 152.619 43.597L154.335 46.655L156.106 43.894C156.223 43.7327 156.282 43.5933 156.282 43.476C156.282 43.3513 156.238 43.245 156.15 43.157C156.304 43.069 156.48 43.025 156.678 43.025C156.876 43.025 157.019 43.069 157.107 43.157C157.202 43.245 157.25 43.3623 157.25 43.509C157.25 43.6557 157.191 43.828 157.074 44.026L154.72 47.48L154.709 50.34C154.709 50.5747 154.775 50.7653 154.907 50.912C154.753 51.0293 154.58 51.088 154.39 51.088Z" fill="white"/>
</svg>
