<svg width="56" height="56" viewBox="0 0 56 56" fill="none" xmlns="http://www.w3.org/2000/svg">
<path d="M28 56C43.464 56 56 43.464 56 28C56 12.536 43.464 0 28 0C12.536 0 0 12.536 0 28C0 43.464 12.536 56 28 56Z" fill="#A30041"/>
<path d="M31.1486 40.7331L33.0155 35.7806H40.054L42.0945 40.7695C42.3094 41.2959 42.8218 41.6396 43.3902 41.6396H49.1288L38.6253 16.245C38.1535 15.104 37.0405 14.3606 35.8064 14.3606C33.6392 14.3606 32.1629 16.5579 32.9819 18.5641L37.8812 30.5656H30.4472C29.6065 30.5656 28.8463 31.0675 28.5159 31.841L24.3313 41.6396H29.8389C30.4213 41.6396 30.9428 41.2784 31.1486 40.7331Z" fill="white"/>
<path d="M20.629 14.553H9.67053V41.447H16.0216L16.0405 32.753L20.9363 32.6956C22.2264 32.6802 23.5032 32.4114 24.6813 31.8864C27.0333 30.8378 30.0755 28.4669 30.0755 23.2197C30.0755 14.6657 20.629 14.553 20.629 14.553ZM20.3665 27.5177H16.0412V19.943H20.3203C20.3203 19.943 23.9071 20.153 23.9071 23.73C23.9064 27.3077 20.3665 27.5177 20.3665 27.5177Z" fill="white"/>
</svg>
